<svg xmlns="http://www.w3.org/2000/svg" viewBox="0 0 780 500" font-family="Arial, Helvetica, sans-serif">
  <defs>
    <marker id="arr" markerWidth="10" markerHeight="7" refX="9" refY="3.5" orient="auto">
      <polygon points="0 0, 10 3.5, 0 7" fill="#555"/>
    </marker>
    <marker id="arr-red" markerWidth="10" markerHeight="7" refX="9" refY="3.5" orient="auto">
      <polygon points="0 0, 10 3.5, 0 7" fill="#c0392b"/>
    </marker>
    <marker id="arr-purple" markerWidth="10" markerHeight="7" refX="9" refY="3.5" orient="auto">
      <polygon points="0 0, 10 3.5, 0 7" fill="#7d3c98"/>
    </marker>
    <marker id="arr-orange" markerWidth="10" markerHeight="7" refX="9" refY="3.5" orient="auto">
      <polygon points="0 0, 10 3.5, 0 7" fill="#d35400"/>
    </marker>
    <marker id="arr-blue" markerWidth="10" markerHeight="7" refX="9" refY="3.5" orient="auto">
      <polygon points="0 0, 10 3.5, 0 7" fill="#1a5276"/>
    </marker>
    <filter id="shadow">
      <feDropShadow dx="2" dy="2" stdDeviation="3" flood-color="#00000022"/>
    </filter>
  </defs>

  <rect width="780" height="500" fill="#f5f6fa"/>

  <!-- ── SMTP Client ── -->
  <rect x="20" y="160" width="130" height="75" rx="8" fill="#dfe6e9" stroke="#b2bec3" stroke-width="1.5" filter="url(#shadow)"/>
  <text x="85" y="186" text-anchor="middle" font-size="13" font-weight="bold" fill="#2d3436">SMTP Client</text>
  <text x="85" y="203" text-anchor="middle" font-size="11" fill="#636e72">authenticated</text>
  <text x="85" y="220" text-anchor="middle" font-size="11" fill="#636e72">SASL session</text>

  <!-- arrow SMTP → Postfix -->
  <line x1="150" y1="197" x2="188" y2="197" stroke="#555" stroke-width="1.5" marker-end="url(#arr)"/>
  <text x="169" y="190" text-anchor="middle" font-size="10" fill="#555">SMTP</text>

  <!-- ── Postfix ── -->
  <rect x="188" y="130" width="148" height="135" rx="8" fill="#ffeaa7" stroke="#fdcb6e" stroke-width="1.5" filter="url(#shadow)"/>
  <text x="262" y="154" text-anchor="middle" font-size="13" font-weight="bold" fill="#2d3436">Postfix MTA</text>
  <line x1="202" y1="162" x2="322" y2="162" stroke="#fdcb6e" stroke-width="1"/>
  <text x="262" y="179" text-anchor="middle" font-size="11" fill="#636e72">MAIL FROM</text>
  <text x="262" y="196" text-anchor="middle" font-size="11" fill="#636e72">From: header</text>
  <text x="262" y="213" text-anchor="middle" font-size="11" fill="#636e72">{auth_authen}</text>
  <text x="262" y="230" text-anchor="middle" font-size="11" fill="#636e72">{client_addr}</text>
  <text x="262" y="247" text-anchor="middle" font-size="11" fill="#636e72">milter_mail_macros</text>

  <!-- arrow Postfix → Milter -->
  <line x1="336" y1="197" x2="374" y2="197" stroke="#555" stroke-width="1.5" marker-end="url(#arr)"/>
  <text x="355" y="188" text-anchor="middle" font-size="10" fill="#555">milter</text>
  <text x="355" y="202" text-anchor="middle" font-size="10" fill="#555">proto</text>

  <!-- ── mailfrom-milter ── -->
  <rect x="374" y="80" width="200" height="235" rx="8" fill="#ffffff" stroke="#00b894" stroke-width="2" filter="url(#shadow)"/>
  <rect x="374" y="80" width="200" height="34" rx="8" fill="#00b894"/>
  <rect x="374" y="96" width="200" height="18" fill="#00b894"/>
  <text x="474" y="101" text-anchor="middle" font-size="13" font-weight="bold" fill="#ffffff">mailfrom-milter</text>

  <rect x="390" y="126" width="168" height="52" rx="6" fill="#d5f5e3" stroke="#27ae60" stroke-width="1.2"/>
  <text x="474" y="145" text-anchor="middle" font-size="11" font-weight="bold" fill="#1e8449">flag_check_auth</text>
  <text x="474" y="160" text-anchor="middle" font-size="10" fill="#2d6a4f">SASL domain vs MAIL FROM domain</text>
  <text x="474" y="174" text-anchor="middle" font-size="10" fill="#555">pass / fail</text>

  <rect x="390" y="190" width="168" height="52" rx="6" fill="#d5f5e3" stroke="#27ae60" stroke-width="1.2"/>
  <text x="474" y="209" text-anchor="middle" font-size="11" font-weight="bold" fill="#1e8449">flag_check_data</text>
  <text x="474" y="224" text-anchor="middle" font-size="10" fill="#2d6a4f">MAIL FROM domain vs From: domain</text>
  <text x="474" y="238" text-anchor="middle" font-size="10" fill="#555">pass / fail</text>

  <text x="474" y="270" text-anchor="middle" font-size="10" fill="#888">MF_ACTION  |  REJECT_CODE</text>
  <text x="474" y="285" text-anchor="middle" font-size="10" fill="#aaa">only authenticated sessions</text>
  <text x="474" y="305" text-anchor="middle" font-size="10" fill="#aaa">unauthenticated — skip</text>

  <!-- arrows milter → outcomes -->
  <line x1="574" y1="125" x2="614" y2="105" stroke="#c0392b" stroke-width="1.5" marker-end="url(#arr-red)"/>
  <line x1="574" y1="180" x2="614" y2="200" stroke="#7d3c98" stroke-width="1.5" marker-end="url(#arr-purple)"/>
  <line x1="574" y1="250" x2="614" y2="300" stroke="#d35400" stroke-width="1.5" marker-end="url(#arr-orange)"/>
  <line x1="574" y1="295" x2="614" y2="395" stroke="#1a5276" stroke-width="1.5" marker-end="url(#arr-blue)"/>

  <!-- ── reject ── -->
  <rect x="614" y="60" width="148" height="72" rx="8" fill="#fadbd8" stroke="#c0392b" stroke-width="1.5" filter="url(#shadow)"/>
  <text x="688" y="82" text-anchor="middle" font-size="13" font-weight="bold" fill="#c0392b">reject</text>
  <text x="688" y="99" text-anchor="middle" font-size="10" fill="#7b241c">421 / 550  4/5.7.1</text>
  <text x="688" y="114" text-anchor="middle" font-size="10" fill="#7b241c">MFC010001/2, sender notified</text>

  <!-- ── discard ── -->
  <rect x="614" y="155" width="148" height="72" rx="8" fill="#e8daef" stroke="#7d3c98" stroke-width="1.5" filter="url(#shadow)"/>
  <text x="688" y="177" text-anchor="middle" font-size="13" font-weight="bold" fill="#6c3483">discard</text>
  <text x="688" y="194" text-anchor="middle" font-size="10" fill="#6c3483">250 OK to sender</text>
  <text x="688" y="209" text-anchor="middle" font-size="10" fill="#6c3483">silent drop, never queued</text>

  <!-- ── quarantine_header ── -->
  <rect x="614" y="255" width="148" height="72" rx="8" fill="#fdebd0" stroke="#d35400" stroke-width="1.5" filter="url(#shadow)"/>
  <text x="688" y="274" text-anchor="middle" font-size="11" font-weight="bold" fill="#d35400">quarantine_header</text>
  <text x="688" y="291" text-anchor="middle" font-size="10" fill="#a04000">add X-MF-* headers</text>
  <text x="688" y="306" text-anchor="middle" font-size="10" fill="#a04000">X-MF-Quarantine: yes/no</text>

  <!-- ── accept ── -->
  <rect x="614" y="355" width="148" height="72" rx="8" fill="#d6eaf8" stroke="#1a5276" stroke-width="1.5" filter="url(#shadow)"/>
  <text x="688" y="377" text-anchor="middle" font-size="13" font-weight="bold" fill="#1a5276">accept</text>
  <text x="688" y="394" text-anchor="middle" font-size="10" fill="#1a5276">log only</text>
  <text x="688" y="409" text-anchor="middle" font-size="10" fill="#1a5276">no SMTP intervention</text>

</svg>
