<svg xmlns="http://www.w3.org/2000/svg" viewBox="0 0 720 500" font-family="Arial, Helvetica, sans-serif">
  <defs>
    <marker id="arr" markerWidth="10" markerHeight="7" refX="9" refY="3.5" orient="auto">
      <polygon points="0 0, 10 3.5, 0 7" fill="#555"/>
    </marker>
    <marker id="arr-red" markerWidth="10" markerHeight="7" refX="9" refY="3.5" orient="auto">
      <polygon points="0 0, 10 3.5, 0 7" fill="#c0392b"/>
    </marker>
    <marker id="arr-purple" markerWidth="10" markerHeight="7" refX="9" refY="3.5" orient="auto">
      <polygon points="0 0, 10 3.5, 0 7" fill="#7d3c98"/>
    </marker>
    <marker id="arr-orange" markerWidth="10" markerHeight="7" refX="9" refY="3.5" orient="auto">
      <polygon points="0 0, 10 3.5, 0 7" fill="#d35400"/>
    </marker>
    <marker id="arr-blue" markerWidth="10" markerHeight="7" refX="9" refY="3.5" orient="auto">
      <polygon points="0 0, 10 3.5, 0 7" fill="#1a5276"/>
    </marker>
    <filter id="shadow">
      <feDropShadow dx="2" dy="2" stdDeviation="3" flood-color="#00000022"/>
    </filter>
  </defs>

  <rect width="720" height="500" fill="#f5f6fa"/>

  <!-- ── LEFT COLUMN ── -->

  <!-- SMTP Client -->
  <rect x="30" y="30" width="220" height="65" rx="8" fill="#dfe6e9" stroke="#b2bec3" stroke-width="1.5" filter="url(#shadow)"/>
  <text x="140" y="55" text-anchor="middle" font-size="13" font-weight="bold" fill="#2d3436">SMTP Client</text>
  <text x="140" y="73" text-anchor="middle" font-size="11" fill="#636e72">authenticated SASL session</text>

  <line x1="140" y1="95" x2="140" y2="118" stroke="#555" stroke-width="1.5" marker-end="url(#arr)"/>
  <text x="155" y="110" font-size="10" fill="#555">SMTP</text>

  <!-- Postfix MTA -->
  <rect x="30" y="118" width="220" height="118" rx="8" fill="#ffeaa7" stroke="#fdcb6e" stroke-width="1.5" filter="url(#shadow)"/>
  <text x="140" y="141" text-anchor="middle" font-size="13" font-weight="bold" fill="#2d3436">Postfix MTA</text>
  <line x1="44" y1="149" x2="236" y2="149" stroke="#fdcb6e" stroke-width="1"/>
  <text x="140" y="166" text-anchor="middle" font-size="11" fill="#636e72">MAIL FROM  |  From: header</text>
  <text x="140" y="183" text-anchor="middle" font-size="11" fill="#636e72">{auth_authen}  |  {client_addr}</text>
  <text x="140" y="200" text-anchor="middle" font-size="11" fill="#636e72">milter_mail_macros</text>
  <text x="140" y="217" text-anchor="middle" font-size="10" fill="#aaa">milter protocol</text>

  <line x1="140" y1="236" x2="140" y2="258" stroke="#555" stroke-width="1.5" marker-end="url(#arr)"/>

  <!-- mailfrom-milter -->
  <rect x="30" y="258" width="220" height="210" rx="8" fill="#ffffff" stroke="#00b894" stroke-width="2" filter="url(#shadow)"/>
  <rect x="30" y="258" width="220" height="34" rx="8" fill="#00b894"/>
  <rect x="30" y="274" width="220" height="18" fill="#00b894"/>
  <text x="140" y="279" text-anchor="middle" font-size="13" font-weight="bold" fill="#ffffff">mailfrom-milter</text>

  <rect x="44" y="302" width="192" height="50" rx="6" fill="#d5f5e3" stroke="#27ae60" stroke-width="1.2"/>
  <text x="140" y="321" text-anchor="middle" font-size="11" font-weight="bold" fill="#1e8449">flag_check_auth</text>
  <text x="140" y="337" text-anchor="middle" font-size="10" fill="#2d6a4f">SASL domain vs MAIL FROM domain</text>
  <text x="140" y="349" text-anchor="middle" font-size="10" fill="#555">pass / fail</text>

  <rect x="44" y="362" width="192" height="50" rx="6" fill="#d5f5e3" stroke="#27ae60" stroke-width="1.2"/>
  <text x="140" y="381" text-anchor="middle" font-size="11" font-weight="bold" fill="#1e8449">flag_check_data</text>
  <text x="140" y="397" text-anchor="middle" font-size="10" fill="#2d6a4f">MAIL FROM domain vs From: domain</text>
  <text x="140" y="409" text-anchor="middle" font-size="10" fill="#555">pass / fail</text>

  <text x="140" y="438" text-anchor="middle" font-size="10" fill="#888">MF_ACTION  |  REJECT_CODE</text>
  <text x="140" y="455" text-anchor="middle" font-size="10" fill="#aaa">only authenticated sessions</text>

  <!-- ── CONNECTORS: milter → outcomes (bezier curves) ── -->
  <path d="M 250,310 C 340,310 340,70  418,70"  fill="none" stroke="#c0392b" stroke-width="1.5" marker-end="url(#arr-red)"/>
  <path d="M 250,345 C 340,345 340,188 418,188" fill="none" stroke="#7d3c98" stroke-width="1.5" marker-end="url(#arr-purple)"/>
  <path d="M 250,390 C 340,390 340,305 418,305" fill="none" stroke="#d35400" stroke-width="1.5" marker-end="url(#arr-orange)"/>
  <path d="M 250,430 C 340,430 340,423 418,423" fill="none" stroke="#1a5276" stroke-width="1.5" marker-end="url(#arr-blue)"/>

  <!-- ── RIGHT COLUMN ── -->

  <!-- reject -->
  <rect x="418" y="30" width="270" height="80" rx="8" fill="#fadbd8" stroke="#c0392b" stroke-width="1.5" filter="url(#shadow)"/>
  <text x="553" y="54" text-anchor="middle" font-size="13" font-weight="bold" fill="#c0392b">reject</text>
  <text x="553" y="72" text-anchor="middle" font-size="10" fill="#7b241c">421 / 550  4/5.7.1  —  MFC010001 / MFC010002</text>
  <text x="553" y="88" text-anchor="middle" font-size="10" fill="#7b241c">SMTP rejection, sender is notified</text>

  <!-- discard -->
  <rect x="418" y="148" width="270" height="80" rx="8" fill="#e8daef" stroke="#7d3c98" stroke-width="1.5" filter="url(#shadow)"/>
  <text x="553" y="172" text-anchor="middle" font-size="13" font-weight="bold" fill="#6c3483">discard</text>
  <text x="553" y="190" text-anchor="middle" font-size="10" fill="#6c3483">250 OK to sender  —  silent drop</text>
  <text x="553" y="206" text-anchor="middle" font-size="10" fill="#6c3483">message never reaches queue</text>

  <!-- quarantine_header -->
  <rect x="418" y="265" width="270" height="80" rx="8" fill="#fdebd0" stroke="#d35400" stroke-width="1.5" filter="url(#shadow)"/>
  <text x="553" y="289" text-anchor="middle" font-size="12" font-weight="bold" fill="#d35400">quarantine_header</text>
  <text x="553" y="307" text-anchor="middle" font-size="10" fill="#a04000">add X-MF-* headers, pass through</text>
  <text x="553" y="323" text-anchor="middle" font-size="10" fill="#a04000">X-MF-Quarantine: yes / no</text>

  <!-- accept -->
  <rect x="418" y="383" width="270" height="80" rx="8" fill="#d6eaf8" stroke="#1a5276" stroke-width="1.5" filter="url(#shadow)"/>
  <text x="553" y="407" text-anchor="middle" font-size="13" font-weight="bold" fill="#1a5276">accept</text>
  <text x="553" y="425" text-anchor="middle" font-size="10" fill="#1a5276">log only, no SMTP intervention</text>
  <text x="553" y="441" text-anchor="middle" font-size="10" fill="#1a5276">pass through</text>

</svg>
