<svg xmlns="http://www.w3.org/2000/svg" viewBox="0 0 1000 400" font-family="Arial, Helvetica, sans-serif">
  <defs>
    <marker id="arr" markerWidth="10" markerHeight="7" refX="9" refY="3.5" orient="auto">
      <polygon points="0 0, 10 3.5, 0 7" fill="#555"/>
    </marker>
    <marker id="arr-red" markerWidth="10" markerHeight="7" refX="9" refY="3.5" orient="auto">
      <polygon points="0 0, 10 3.5, 0 7" fill="#c0392b"/>
    </marker>
    <marker id="arr-purple" markerWidth="10" markerHeight="7" refX="9" refY="3.5" orient="auto">
      <polygon points="0 0, 10 3.5, 0 7" fill="#7d3c98"/>
    </marker>
    <marker id="arr-orange" markerWidth="10" markerHeight="7" refX="9" refY="3.5" orient="auto">
      <polygon points="0 0, 10 3.5, 0 7" fill="#d35400"/>
    </marker>
    <marker id="arr-blue" markerWidth="10" markerHeight="7" refX="9" refY="3.5" orient="auto">
      <polygon points="0 0, 10 3.5, 0 7" fill="#1a5276"/>
    </marker>
    <filter id="shadow">
      <feDropShadow dx="2" dy="2" stdDeviation="3" flood-color="#00000022"/>
    </filter>
  </defs>

  <rect width="1000" height="400" fill="#f5f6fa"/>

  <!-- ── SMTP Client ── -->
  <rect x="30" y="80" width="140" height="80" rx="8" fill="#dfe6e9" stroke="#b2bec3" stroke-width="1.5" filter="url(#shadow)"/>
  <text x="100" y="110" text-anchor="middle" font-size="13" font-weight="bold" fill="#2d3436">SMTP Client</text>
  <text x="100" y="128" text-anchor="middle" font-size="11" fill="#636e72">authenticated</text>
  <text x="100" y="145" text-anchor="middle" font-size="11" fill="#636e72">SASL session</text>

  <!-- arrow SMTP → Postfix -->
  <line x1="170" y1="120" x2="210" y2="120" stroke="#555" stroke-width="1.5" marker-end="url(#arr)"/>
  <text x="190" y="112" text-anchor="middle" font-size="10" fill="#555">SMTP</text>

  <!-- ── Postfix ── -->
  <rect x="210" y="55" width="155" height="130" rx="8" fill="#ffeaa7" stroke="#fdcb6e" stroke-width="1.5" filter="url(#shadow)"/>
  <text x="287" y="78" text-anchor="middle" font-size="13" font-weight="bold" fill="#2d3436">Postfix MTA</text>
  <line x1="224" y1="85" x2="351" y2="85" stroke="#fdcb6e" stroke-width="1"/>
  <text x="287" y="103" text-anchor="middle" font-size="11" fill="#636e72">MAIL FROM</text>
  <text x="287" y="120" text-anchor="middle" font-size="11" fill="#636e72">From: header</text>
  <text x="287" y="137" text-anchor="middle" font-size="11" fill="#636e72">{auth_authen}</text>
  <text x="287" y="154" text-anchor="middle" font-size="11" fill="#636e72">{client_addr}</text>
  <text x="287" y="171" text-anchor="middle" font-size="11" fill="#636e72">milter_mail_macros</text>

  <!-- arrow Postfix → Milter -->
  <line x1="365" y1="120" x2="405" y2="120" stroke="#555" stroke-width="1.5" marker-end="url(#arr)"/>
  <text x="385" y="112" text-anchor="middle" font-size="10" fill="#555">milter</text>
  <text x="385" y="126" text-anchor="middle" font-size="10" fill="#555">proto</text>

  <!-- ── mailfrom-milter ── -->
  <rect x="405" y="40" width="220" height="200" rx="8" fill="#ffffff" stroke="#00b894" stroke-width="2" filter="url(#shadow)"/>
  <rect x="405" y="40" width="220" height="36" rx="8" fill="#00b894"/>
  <rect x="405" y="58" width="220" height="18" fill="#00b894"/>
  <text x="515" y="63" text-anchor="middle" font-size="13" font-weight="bold" fill="#ffffff">mailfrom-milter</text>

  <rect x="420" y="88" width="190" height="52" rx="6" fill="#d5f5e3" stroke="#27ae60" stroke-width="1.2"/>
  <text x="515" y="107" text-anchor="middle" font-size="11" font-weight="bold" fill="#1e8449">flag_check_auth</text>
  <text x="515" y="122" text-anchor="middle" font-size="10" fill="#2d6a4f">SASL domain  vs  MAIL FROM domain</text>
  <text x="515" y="136" text-anchor="middle" font-size="10" fill="#555">pass / fail</text>

  <rect x="420" y="152" width="190" height="52" rx="6" fill="#d5f5e3" stroke="#27ae60" stroke-width="1.2"/>
  <text x="515" y="171" text-anchor="middle" font-size="11" font-weight="bold" fill="#1e8449">flag_check_data</text>
  <text x="515" y="186" text-anchor="middle" font-size="10" fill="#2d6a4f">MAIL FROM domain  vs  From: domain</text>
  <text x="515" y="200" text-anchor="middle" font-size="10" fill="#555">pass / fail</text>

  <text x="515" y="228" text-anchor="middle" font-size="10" fill="#888">MF_ACTION  |  REJECT_CODE</text>

  <!-- vertical line down from milter center -->
  <line x1="515" y1="240" x2="515" y2="270" stroke="#888" stroke-width="1.5"/>
  <!-- horizontal line -->
  <line x1="110" y1="270" x2="890" y2="270" stroke="#888" stroke-width="1.5"/>

  <!-- vertical drops to outcome boxes -->
  <line x1="110" y1="270" x2="110" y2="300" stroke="#c0392b" stroke-width="1.5" marker-end="url(#arr-red)"/>
  <line x1="370" y1="270" x2="370" y2="300" stroke="#7d3c98" stroke-width="1.5" marker-end="url(#arr-purple)"/>
  <line x1="630" y1="270" x2="630" y2="300" stroke="#d35400" stroke-width="1.5" marker-end="url(#arr-orange)"/>
  <line x1="890" y1="270" x2="890" y2="300" stroke="#1a5276" stroke-width="1.5" marker-end="url(#arr-blue)"/>

  <!-- ── reject ── -->
  <rect x="20" y="300" width="180" height="72" rx="8" fill="#fadbd8" stroke="#c0392b" stroke-width="1.5" filter="url(#shadow)"/>
  <text x="110" y="322" text-anchor="middle" font-size="13" font-weight="bold" fill="#c0392b">reject</text>
  <text x="110" y="340" text-anchor="middle" font-size="10" fill="#7b241c">421 / 550  4/5.7.1</text>
  <text x="110" y="355" text-anchor="middle" font-size="10" fill="#7b241c">MFC010001 / MFC010002</text>
  <text x="110" y="368" text-anchor="middle" font-size="10" fill="#7b241c">sender is notified</text>

  <!-- ── discard ── -->
  <rect x="280" y="300" width="180" height="72" rx="8" fill="#e8daef" stroke="#7d3c98" stroke-width="1.5" filter="url(#shadow)"/>
  <text x="370" y="322" text-anchor="middle" font-size="13" font-weight="bold" fill="#6c3483">discard</text>
  <text x="370" y="340" text-anchor="middle" font-size="10" fill="#6c3483">250 OK to sender</text>
  <text x="370" y="355" text-anchor="middle" font-size="10" fill="#6c3483">silent drop</text>
  <text x="370" y="368" text-anchor="middle" font-size="10" fill="#6c3483">never reaches queue</text>

  <!-- ── quarantine_header ── -->
  <rect x="540" y="300" width="180" height="72" rx="8" fill="#fdebd0" stroke="#d35400" stroke-width="1.5" filter="url(#shadow)"/>
  <text x="630" y="322" text-anchor="middle" font-size="12" font-weight="bold" fill="#d35400">quarantine_header</text>
  <text x="630" y="340" text-anchor="middle" font-size="10" fill="#a04000">add X-MF-* headers</text>
  <text x="630" y="355" text-anchor="middle" font-size="10" fill="#a04000">X-MF-Quarantine: yes/no</text>
  <text x="630" y="368" text-anchor="middle" font-size="10" fill="#a04000">pass through</text>

  <!-- ── accept ── -->
  <rect x="800" y="300" width="180" height="72" rx="8" fill="#d6eaf8" stroke="#1a5276" stroke-width="1.5" filter="url(#shadow)"/>
  <text x="890" y="322" text-anchor="middle" font-size="13" font-weight="bold" fill="#1a5276">accept</text>
  <text x="890" y="340" text-anchor="middle" font-size="10" fill="#1a5276">log only</text>
  <text x="890" y="355" text-anchor="middle" font-size="10" fill="#1a5276">no SMTP intervention</text>
  <text x="890" y="368" text-anchor="middle" font-size="10" fill="#1a5276">pass through</text>

</svg>
